<svg width="529" height="128" viewBox="0 0 529 128" fill="none" xmlns="http://www.w3.org/2000/svg">
<path d="M99.1479 84.3905H72.1418L45.7944 35.4832L18.7883 84.3905H7.92001V74.5103L37.8902 20.0041L66.3783 11.6058L99.1479 74.0163V84.3905Z" fill="black"/>
<g filter="url(#filter0_d_11_333)">
<path d="M131.792 34.8896C134.114 34.8896 136.816 35.1898 139.898 35.7902C143.02 36.3906 145.302 37.031 146.743 37.7115V50.5004H141.039C137.956 44.6963 133.714 41.7943 128.31 41.7943C126.108 41.7943 124.087 42.4948 122.246 43.8958C120.404 45.2968 118.943 47.2181 117.863 49.6598C116.822 52.1015 116.301 54.8434 116.301 57.8855C116.301 61.3278 116.822 64.49 117.863 67.372C118.943 70.214 120.564 72.4956 122.726 74.2168C124.887 75.8979 127.569 76.7385 130.771 76.7385C134.414 76.7385 139.598 74.7371 146.322 70.7343L148.724 74.577L137.676 83.1629C135.915 83.6833 134.214 84.0235 132.573 84.1836C130.972 84.3838 129.25 84.4839 127.409 84.4839C122.926 84.4839 118.943 83.4631 115.461 81.4217C111.979 79.3803 109.277 76.5784 107.355 73.0159C105.434 69.4134 104.473 65.3306 104.473 60.7675C104.473 56.0842 105.914 51.7612 108.796 47.7985C111.678 43.7957 115.261 40.6536 119.544 38.372C123.827 36.0504 127.91 34.8896 131.792 34.8896ZM174.206 50.3202C177.168 50.3202 179.81 51.0207 182.131 52.4217C184.453 53.7826 186.254 55.6639 187.535 58.0656C188.856 60.4672 189.516 63.1291 189.516 66.0511C189.516 69.2133 188.496 72.1753 186.454 74.9373C184.413 77.6591 181.851 79.8406 178.769 81.4818C175.727 83.0829 172.785 83.8834 169.943 83.8834C167.021 83.8834 164.379 83.203 162.017 81.842C159.696 80.4411 157.874 78.5397 156.554 76.1381C155.273 73.7364 154.632 71.0746 154.632 68.1526C154.632 64.9904 155.653 62.0483 157.694 59.3265C159.736 56.5646 162.277 54.383 165.32 52.7819C168.402 51.1408 171.364 50.3202 174.206 50.3202ZM170.723 57.285C169.042 57.285 167.761 57.9655 166.881 59.3265C166.04 60.6474 165.62 62.6287 165.62 65.2706C165.62 68.6329 166.3 71.4348 167.661 73.6764C169.022 75.8779 170.943 76.9787 173.425 76.9787C175.066 76.9787 176.307 76.2982 177.148 74.9373C178.028 73.5363 178.469 71.5149 178.469 68.8731C178.469 65.5107 177.788 62.7488 176.427 60.5873C175.066 58.3858 173.165 57.285 170.723 57.285ZM234.834 83.283H221.205V64.0697C221.205 62.1884 220.905 60.8675 220.304 60.107C219.744 59.3064 218.743 58.9062 217.302 58.9062C215.181 58.9062 213.079 59.5866 210.998 60.9476V77.5791L216.402 79.3803L214.42 83.283H195.447V79.9207L200.791 75.4176V61.7882L195.447 58.4258V55.0635L207.936 49.7799L210.277 56.7447L217.723 50.8006C218.803 50.4803 220.024 50.3202 221.385 50.3202C224.427 50.3202 226.849 51.1608 228.65 52.842C230.491 54.4831 231.412 56.7247 231.412 59.5666V77.5791L236.816 79.3803L234.834 83.283ZM257.448 75.6577C257.448 74.8972 256.927 74.1367 255.887 73.3762C254.846 72.5756 253.245 71.5749 251.083 70.3741C248.962 69.1733 247.261 68.1526 245.98 67.312C244.699 66.4314 243.578 65.4507 242.618 64.3699C241.697 63.2492 241.237 62.0483 241.237 60.7675C241.237 59.3265 241.917 57.7854 243.278 56.1443C244.679 54.5031 246.38 53.1222 248.382 52.0014C250.383 50.8806 252.224 50.3202 253.905 50.3202C255.947 50.3202 258.328 50.5604 261.05 51.0407C263.812 51.481 265.814 51.9814 267.054 52.5418V62.5687H263.272C262.191 60.5673 260.89 59.0062 259.369 57.8855C257.888 56.7647 256.347 56.2043 254.746 56.2043C253.945 56.2043 253.305 56.4445 252.825 56.9248C252.344 57.3651 252.104 57.9055 252.104 58.5459C252.104 59.3865 252.624 60.2071 253.665 61.0076C254.746 61.8082 256.447 62.8689 258.769 64.1898C261.851 65.871 264.212 67.392 265.854 68.753C267.535 70.1139 268.375 71.675 268.375 73.4362C268.375 74.9172 267.655 76.4783 266.214 78.1195C264.813 79.7206 263.072 81.0815 260.99 82.2023C258.949 83.323 257.068 83.8834 255.346 83.8834C253.145 83.8834 250.523 83.6633 247.481 83.223C244.479 82.7426 242.337 82.2223 241.056 81.6619V71.2747H244.839C246.04 73.3962 247.521 75.0573 249.282 76.2582C251.043 77.419 252.785 77.9994 254.506 77.9994C255.386 77.9994 256.087 77.7792 256.607 77.3389C257.168 76.8586 257.448 76.2982 257.448 75.6577ZM311.13 83.283H297.44V78.1195L290.956 83.4631C289.875 83.7834 288.654 83.9435 287.293 83.9435C284.211 83.9435 281.77 83.1229 279.968 81.4818C278.167 79.8006 277.267 77.539 277.267 74.6971V61.7882L271.923 58.726V55.3637L283.691 50.1401H287.474V70.194C287.474 72.1153 287.754 73.4562 288.314 74.2168C288.875 74.9773 289.875 75.3575 291.316 75.3575C293.398 75.3575 295.439 74.6771 297.44 73.3161V61.7882L292.097 58.726V55.3637L303.865 50.1401H307.648V77.5791L313.051 79.3803L311.13 83.283ZM334.262 83.283H315.289V79.9207L320.632 75.4176V42.5749L315.289 39.0324V35.6701L327.057 30.8668H330.839V77.5791L336.243 79.3803L334.262 83.283ZM359.911 83.4031C358.55 83.7233 356.928 83.8834 355.047 83.8834C351.204 83.8834 348.383 83.0228 346.581 81.3017C344.82 79.5404 343.939 76.8386 343.939 73.196V56.6846H337.455V53.5024L350.364 39.4527H354.147V52.7219H364.954V56.6846H354.147V72.7758C354.147 75.5377 355.708 76.9186 358.83 76.9186C359.63 76.9186 360.411 76.7985 361.171 76.5584C361.972 76.2782 362.973 75.8179 364.173 75.1774L365.975 78.5998L359.911 83.4031ZM374.825 74.3426C376.133 74.3426 377.197 74.7684 378.018 75.6198C378.869 76.4713 379.295 77.5204 379.295 78.7672C379.295 79.6491 378.991 80.4701 378.383 81.2304C377.775 81.9906 377.014 82.5988 376.102 83.0549C375.19 83.5111 374.308 83.7392 373.456 83.7392C372.179 83.7392 371.115 83.3286 370.263 82.5076C369.442 81.6561 369.032 80.607 369.032 79.3602C369.032 78.4783 369.336 77.6573 369.944 76.897C370.552 76.1064 371.297 75.483 372.179 75.0268C373.092 74.5707 373.973 74.3426 374.825 74.3426ZM397.955 83.283H383.541V80.7286L387.601 77.3076V66.7251L383.541 64.0338V61.4794L392.482 57.8303H395.355V78.9497L399.461 80.3181L397.955 83.283ZM391.433 44.1004C392.74 44.1004 393.805 44.5261 394.626 45.3776C395.477 46.1987 395.903 47.2326 395.903 48.4794C395.903 49.3612 395.599 50.1823 394.991 50.9425C394.382 51.7028 393.622 52.311 392.71 52.7671C391.798 53.2232 390.916 53.4513 390.064 53.4513C388.787 53.4513 387.723 53.0408 386.871 52.2197C386.05 51.3683 385.64 50.3191 385.64 49.0723C385.64 48.1905 385.944 47.3694 386.552 46.6092C387.16 45.8489 387.905 45.2408 388.787 44.7846C389.699 44.3285 390.581 44.1004 391.433 44.1004ZM431.993 83.283H421.639V68.6865C421.639 67.2572 421.411 66.2537 420.955 65.6759C420.529 65.0677 419.769 64.7636 418.674 64.7636C417.062 64.7636 415.466 65.2806 413.885 66.3145V78.9497L417.99 80.3181L416.485 83.283H402.071V80.7286L406.13 77.3076V66.9531L402.071 64.3987V61.8443L411.558 57.8303L413.337 63.1215L418.993 58.6057C419.814 58.3624 420.742 58.2408 421.776 58.2408C424.087 58.2408 425.927 58.8794 427.295 60.1566C428.694 61.4034 429.393 63.1063 429.393 65.2654V78.9497L433.499 80.3181L431.993 83.283Z" fill="black"/>
</g>
<defs>
<filter id="filter0_d_11_333" x="99.6642" y="30.8668" width="338.644" height="63.2353" filterUnits="userSpaceOnUse" color-interpolation-filters="sRGB">
<feFlood flood-opacity="0" result="BackgroundImageFix"/>
<feColorMatrix in="SourceAlpha" type="matrix" values="0 0 0 0 0 0 0 0 0 0 0 0 0 0 0 0 0 0 127 0" result="hardAlpha"/>
<feOffset dy="4.80909"/>
<feGaussianBlur stdDeviation="2.40455"/>
<feComposite in2="hardAlpha" operator="out"/>
<feColorMatrix type="matrix" values="0 0 0 0 0 0 0 0 0 0 0 0 0 0 0 0 0 0 0.41 0"/>
<feBlend mode="normal" in2="BackgroundImageFix" result="effect1_dropShadow_11_333"/>
<feBlend mode="normal" in="SourceGraphic" in2="effect1_dropShadow_11_333" result="shape"/>
</filter>
</defs>
</svg>
