<svg width="529" height="200" viewBox="0 0 529 200" fill="none" xmlns="http://www.w3.org/2000/svg">
<path d="M99.1479 120.118H72.1418L45.7944 71.2109L18.7883 120.118H7.92001V110.238L37.8902 55.7318L66.3783 47.3335L99.1479 109.744V120.118Z" fill="white"/>
<g filter="url(#filter0_d_10_325)">
<path d="M131.792 66.6409C134.114 66.6409 136.816 66.9411 139.898 67.5415C143.02 68.1419 145.302 68.7824 146.743 69.4628V82.2517H141.039C137.956 76.4477 133.714 73.5457 128.31 73.5457C126.108 73.5457 124.087 74.2461 122.246 75.6471C120.404 77.0481 118.943 78.9694 117.863 81.4111C116.822 83.8528 116.301 86.5947 116.301 89.6368C116.301 93.0792 116.822 96.2413 117.863 99.1233C118.943 101.965 120.564 104.247 122.726 105.968C124.887 107.649 127.569 108.49 130.771 108.49C134.414 108.49 139.598 106.488 146.322 102.486L148.724 106.328L137.676 114.914C135.915 115.435 134.214 115.775 132.573 115.935C130.972 116.135 129.25 116.235 127.409 116.235C122.926 116.235 118.943 115.214 115.461 113.173C111.979 111.132 109.277 108.33 107.355 104.767C105.434 101.165 104.473 97.0819 104.473 92.5188C104.473 87.8355 105.914 83.5125 108.796 79.5498C111.678 75.547 115.261 72.4049 119.544 70.1233C123.827 67.8017 127.91 66.6409 131.792 66.6409ZM174.206 82.0715C177.168 82.0715 179.81 82.772 182.131 84.173C184.453 85.5339 186.254 87.4152 187.535 89.8169C188.856 92.2186 189.516 94.8804 189.516 97.8024C189.516 100.965 188.496 103.927 186.454 106.689C184.413 109.41 181.851 111.592 178.769 113.233C175.727 114.834 172.785 115.635 169.943 115.635C167.021 115.635 164.379 114.954 162.017 113.593C159.696 112.192 157.874 110.291 156.554 107.889C155.273 105.488 154.632 102.826 154.632 99.9039C154.632 96.7417 155.653 93.7997 157.694 91.0778C159.736 88.3159 162.277 86.1344 165.32 84.5332C168.402 82.8921 171.364 82.0715 174.206 82.0715ZM170.723 89.0364C169.042 89.0364 167.761 89.7168 166.881 91.0778C166.04 92.3987 165.62 94.3801 165.62 97.0219C165.62 100.384 166.3 103.186 167.661 105.428C169.022 107.629 170.943 108.73 173.425 108.73C175.066 108.73 176.307 108.05 177.148 106.689C178.028 105.288 178.469 103.266 178.469 100.624C178.469 97.262 177.788 94.5001 176.427 92.3386C175.066 90.1371 173.165 89.0364 170.723 89.0364ZM234.834 115.034H221.205V95.8211C221.205 93.9398 220.905 92.6188 220.304 91.8583C219.744 91.0578 218.743 90.6575 217.302 90.6575C215.181 90.6575 213.079 91.338 210.998 92.6989V109.33L216.402 111.132L214.42 115.034H195.447V111.672L200.791 107.169V93.5395L195.447 90.1771V86.8148L207.936 81.5312L210.277 88.496L217.723 82.5519C218.803 82.2317 220.024 82.0715 221.385 82.0715C224.427 82.0715 226.849 82.9121 228.65 84.5933C230.491 86.2344 231.412 88.476 231.412 91.3179V109.33L236.816 111.132L234.834 115.034ZM257.448 107.409C257.448 106.649 256.927 105.888 255.887 105.127C254.846 104.327 253.245 103.326 251.083 102.125C248.962 100.925 247.261 99.9039 245.98 99.0633C244.699 98.1827 243.578 97.202 242.618 96.1213C241.697 95.0005 241.237 93.7997 241.237 92.5188C241.237 91.0778 241.917 89.5367 243.278 87.8956C244.679 86.2544 246.38 84.8735 248.382 83.7527C250.383 82.6319 252.224 82.0715 253.905 82.0715C255.947 82.0715 258.328 82.3117 261.05 82.792C263.812 83.2324 265.814 83.7327 267.054 84.2931V94.32H263.272C262.191 92.3186 260.89 90.7576 259.369 89.6368C257.888 88.516 256.347 87.9556 254.746 87.9556C253.945 87.9556 253.305 88.1958 252.825 88.6761C252.344 89.1164 252.104 89.6568 252.104 90.2972C252.104 91.1378 252.624 91.9584 253.665 92.7589C254.746 93.5595 256.447 94.6202 258.769 95.9411C261.851 97.6223 264.212 99.1433 265.854 100.504C267.535 101.865 268.375 103.426 268.375 105.188C268.375 106.669 267.655 108.23 266.214 109.871C264.813 111.472 263.072 112.833 260.99 113.954C258.949 115.074 257.068 115.635 255.346 115.635C253.145 115.635 250.523 115.415 247.481 114.974C244.479 114.494 242.337 113.974 241.056 113.413V103.026H244.839C246.04 105.147 247.521 106.809 249.282 108.009C251.043 109.17 252.785 109.751 254.506 109.751C255.386 109.751 256.087 109.531 256.607 109.09C257.168 108.61 257.448 108.05 257.448 107.409ZM311.13 115.034H297.44V109.871L290.956 115.214C289.875 115.535 288.654 115.695 287.293 115.695C284.211 115.695 281.77 114.874 279.968 113.233C278.167 111.552 277.267 109.29 277.267 106.448V93.5395L271.923 90.4774V87.115L283.691 81.8914H287.474V101.945C287.474 103.867 287.754 105.208 288.314 105.968C288.875 106.729 289.875 107.109 291.316 107.109C293.398 107.109 295.439 106.428 297.44 105.067V93.5395L292.097 90.4774V87.115L303.865 81.8914H307.648V109.33L313.051 111.132L311.13 115.034ZM334.262 115.034H315.289V111.672L320.632 107.169V74.3262L315.289 70.7837V67.4214L327.057 62.6181H330.839V109.33L336.243 111.132L334.262 115.034ZM359.911 115.154C358.55 115.475 356.928 115.635 355.047 115.635C351.204 115.635 348.383 114.774 346.581 113.053C344.82 111.292 343.939 108.59 343.939 104.947V88.4359H337.455V85.2537L350.364 71.204H354.147V84.4732H364.954V88.4359H354.147V104.527C354.147 107.289 355.708 108.67 358.83 108.67C359.63 108.67 360.411 108.55 361.171 108.31C361.972 108.029 362.973 107.569 364.173 106.929L365.975 110.351L359.911 115.154ZM374.825 106.094C376.133 106.094 377.197 106.52 378.018 107.371C378.869 108.223 379.295 109.272 379.295 110.519C379.295 111.4 378.991 112.221 378.383 112.982C377.775 113.742 377.014 114.35 376.102 114.806C375.19 115.262 374.308 115.49 373.456 115.49C372.179 115.49 371.115 115.08 370.263 114.259C369.442 113.407 369.032 112.358 369.032 111.112C369.032 110.23 369.336 109.409 369.944 108.648C370.552 107.858 371.297 107.234 372.179 106.778C373.092 106.322 373.973 106.094 374.825 106.094ZM397.955 115.034H383.541V112.48L387.601 109.059V98.4764L383.541 95.7851V93.2307L392.482 89.5816H395.355V110.701L399.461 112.069L397.955 115.034ZM391.433 75.8517C392.74 75.8517 393.805 76.2774 394.626 77.1289C395.477 77.95 395.903 78.9839 395.903 80.2307C395.903 81.1126 395.599 81.9336 394.991 82.6938C394.382 83.4541 393.622 84.0623 392.71 84.5184C391.798 84.9746 390.916 85.2026 390.064 85.2026C388.787 85.2026 387.723 84.7921 386.871 83.971C386.05 83.1196 385.64 82.0704 385.64 80.8237C385.64 79.9418 385.944 79.1207 386.552 78.3605C387.16 77.6003 387.905 76.9921 388.787 76.5359C389.699 76.0798 390.581 75.8517 391.433 75.8517ZM431.993 115.034H421.639V100.438C421.639 99.0085 421.411 98.005 420.955 97.4272C420.529 96.8191 419.769 96.515 418.674 96.515C417.062 96.515 415.466 97.0319 413.885 98.0658V110.701L417.99 112.069L416.485 115.034H402.071V112.48L406.13 109.059V98.7044L402.071 96.15V93.5956L411.558 89.5816L413.337 94.8728L418.993 90.357C419.814 90.1138 420.742 89.9921 421.776 89.9921C424.087 89.9921 425.927 90.6307 427.295 91.9079C428.694 93.1547 429.393 94.8576 429.393 97.0167V110.701L433.499 112.069L431.993 115.034Z" fill="white"/>
</g>
<defs>
<filter id="filter0_d_10_325" x="99.6642" y="62.6181" width="338.644" height="63.2352" filterUnits="userSpaceOnUse" color-interpolation-filters="sRGB">
<feFlood flood-opacity="0" result="BackgroundImageFix"/>
<feColorMatrix in="SourceAlpha" type="matrix" values="0 0 0 0 0 0 0 0 0 0 0 0 0 0 0 0 0 0 127 0" result="hardAlpha"/>
<feOffset dy="4.80909"/>
<feGaussianBlur stdDeviation="2.40455"/>
<feComposite in2="hardAlpha" operator="out"/>
<feColorMatrix type="matrix" values="0 0 0 0 1 0 0 0 0 1 0 0 0 0 1 0 0 0 0.41 0"/>
<feBlend mode="normal" in2="BackgroundImageFix" result="effect1_dropShadow_10_325"/>
<feBlend mode="normal" in="SourceGraphic" in2="effect1_dropShadow_10_325" result="shape"/>
</filter>
</defs>
</svg>
